/* XPM */
static char *_783a09e0fe2460ac88f240e904889be[] = {
/* columns rows colors chars-per-pixel */
"64 64 235 2 ",
"   c #100200",
".  c #241706",
"X  c #2B1503",
"o  c #251A05",
"O  c #2D1A04",
"+  c #23160A",
"@  c #231A0B",
"#  c #2C1C0B",
"$  c #321502",
"%  c #391700",
"&  c #331C03",
"*  c #3A1D03",
"=  c #341709",
"-  c #38160A",
";  c #321E0B",
":  c #3B1B0B",
">  c #231C13",
",  c #2A1F11",
"<  c #351D11",
"1  c #1B241A",
"2  c #27200E",
"3  c #2D210D",
"4  c #342105",
"5  c #3C2105",
"6  c #33220C",
"7  c #3C230B",
"8  c #3F2B0A",
"9  c #242112",
"0  c #2B2213",
"q  c #23221A",
"w  c #2B241D",
"e  c #322113",
"r  c #3C2B15",
"t  c #3C2D1B",
"y  c #3B301F",
"u  c #262922",
"i  c #3C2E22",
"p  c #3C3121",
"a  c #3C352C",
"s  c #3E382A",
"d  c #411C00",
"f  c #432305",
"g  c #4B2703",
"h  c #4C2C07",
"j  c #41260C",
"k  c #4F250D",
"l  c #442B0C",
"z  c #4A2C0C",
"x  c #512A04",
"c  c #52250C",
"v  c #522E0A",
"b  c #44300B",
"n  c #4B310D",
"m  c #54310E",
"M  c #422610",
"N  c #442D13",
"B  c #4A2D13",
"V  c #432E1B",
"C  c #502F10",
"Z  c #453114",
"A  c #4B3214",
"S  c #44331C",
"D  c #4D351C",
"F  c #46381D",
"G  c #4E391C",
"H  c #533413",
"J  c #5B3611",
"K  c #553915",
"L  c #5C3A15",
"P  c #54361A",
"I  c #5A371B",
"U  c #543A1C",
"Y  c #5C3C1C",
"T  c #66340F",
"R  c #6B370F",
"E  c #623614",
"W  c #633A15",
"Q  c #6F3913",
"!  c #633D1B",
"~  c #693D1D",
"^  c #713A13",
"/  c #443422",
"(  c #4B3522",
")  c #453924",
"_  c #4D3B23",
"`  c #463E2C",
"'  c #4B3D2A",
"]  c #503723",
"[  c #543C22",
"{  c #5B3D21",
"}  c #523E2A",
"|  c #583D28",
" . c #573D30",
".. c #633E22",
"X. c #564019",
"o. c #5D411E",
"O. c #674015",
"+. c #63421D",
"@. c #69411C",
"#. c #74441E",
"$. c #7C451C",
"%. c #7A491F",
"&. c #4E422C",
"*. c #564122",
"=. c #5D4123",
"-. c #55412A",
";. c #5B432B",
":. c #564231",
">. c #5A4532",
",. c #5C4933",
"<. c #594838",
"1. c #634322",
"2. c #6C4424",
"3. c #6B4A26",
"4. c #63432C",
"5. c #6B4629",
"6. c #644C2D",
"7. c #6C4C2C",
"8. c #744624",
"9. c #7C4623",
"0. c #744B25",
"q. c #7B4C25",
"w. c #73462C",
"e. c #7F4629",
"r. c #734D2B",
"t. c #7B4D2B",
"y. c #6D502E",
"u. c #7E5127",
"i. c #74512D",
"p. c #7C522D",
"a. c #624732",
"s. c #6C4633",
"d. c #654C34",
"f. c #6B4E32",
"g. c #624C38",
"h. c #734E32",
"j. c #7C4F30",
"k. c #7A4F3C",
"l. c #655032",
"z. c #6C5134",
"x. c #6D543B",
"c. c #6F5A3D",
"v. c #745233",
"b. c #7B5332",
"n. c #7C5A35",
"m. c #73543A",
"M. c #7C563C",
"N. c #745A3C",
"B. c #7C5A3B",
"V. c #7E603E",
"C. c #645342",
"Z. c #655941",
"A. c #735741",
"S. c #725A42",
"D. c #7C5B42",
"F. c #785D48",
"G. c #756043",
"H. c #7D6043",
"J. c #7F604C",
"K. c #824C25",
"L. c #8D4F26",
"P. c #834E2A",
"I. c #894C2D",
"U. c #855326",
"Y. c #8D5427",
"T. c #8A5B27",
"R. c #83542C",
"E. c #8B552D",
"W. c #865A2C",
"Q. c #8B5A2D",
"!. c #955726",
"~. c #91562C",
"^. c #935A2D",
"/. c #9A5D2F",
"(. c #884F31",
"). c #825532",
"_. c #8A5632",
"`. c #855A34",
"'. c #8C5B34",
"]. c #80563A",
"[. c #835C3A",
"{. c #8C5D39",
"}. c #905533",
"|. c #925B34",
" X c #9A5E34",
".X c #925E3B",
"XX c #9A5F3F",
"oX c #8B6032",
"OX c #86603A",
"+X c #8B613C",
"@X c #936033",
"#X c #9D6236",
"$X c #92623A",
"%X c #9C653D",
"&X c #95683E",
"*X c #9D693D",
"=X c #A26137",
"-X c #A2653D",
";X c #A8673D",
":X c #A26A3D",
">X c #AA6A3E",
",X c #815D43",
"<X c #885F49",
"1X c #856243",
"2X c #8C6343",
"3X c #9C6742",
"4X c #976B44",
"5X c #9D6B44",
"6X c #966749",
"7X c #956D49",
"8X c #9A6C4B",
"9X c #9E7047",
"0X c #9D724B",
"qX c #926D52",
"wX c #937151",
"eX c #9C7251",
"rX c #A66644",
"tX c #A86741",
"yX c #A36C44",
"uX c #AC6B44",
"iX c #A36B4A",
"pX c #A57145",
"aX c #AD7345",
"sX c #A2704A",
"dX c #A9744C",
"fX c #B07952",
"gX c #BD7D57",
"hX c #B47D5A",
"jX c #BB7F5D",
"kX c #B68057",
"lX c #BA8355",
"zX c #B28159",
"xX c #B9825D",
"cX c #AE8360",
"vX c #BB8760",
/* pixels */
"> > e = : % = < > 9 @ q 1 1 0 # - - = e 3 3 O < : $ = = = ; ; ; # 6 ; & , 9 > 9 F K v O.O.+.@.8.! ..! ! @.! W L X.L W L A O # / ",
"p <.g.D.w.h.s.m.g.>.:.@ 9 s r D.k.,XD.A.c.G.D.M.,X<X,XD.N.D.D.A.F.A.<Xh.z.X y &.l.y.p.OX[.OX[.+X[.b.p.`.`.).n.[.n.n.n.n.V.l.( r ",
"{ 7.).{.|.|..X8X8XeX7XM.= ..r.vXrXuXsX9X9X9X5XyX%XyXhXvXzX5X3XdXiXjXjXjX2X! P U i.0.q.u.n.p.p.p.b.t.q.j.t.0.t.r.p.t.p.u.[.,Xz.S ",
"L p.$X:XlX>XgXyX3XyX}.(.c w.XXgXuX>X:X:X*X@XT./.uX;XuX#X:X X X=XrXuXuX=X3X).d h.p.#.%.%.q.u.j.t.j.R.R.R.P.t.j.0.0.t.q.8.).p.5.{ ",
"1.i.oXW.Q.^.|.}..XI.I.e.c ].iXrXrXtX X|.|.*X-X-X^. X|.Q.pX|.-X X/./.!.aXyX3.k z.v.h.t.j.e.b.j.b.r.t.u.u.u.q.p.0.0.#.q.q.K.p.i.L ",
"W n.u.'.T.T.|.E.(.}.iX.Xk M.6XiXyXpX%XiX*X3X|.|.yX}.sX'.$X'.'.rX^.:X^.'.{.A ] | N.v.t.t.0.j.8.r.r.r.0.0.q.0.0.p.p.).U.q.u.0.Y l ",
"r.b.'.W.W.Q.W.`.`.R.sX{.5 D 1XOXsX3X'..X|..X|.3X.X5X{.W.'.'.yX|.yX'.$X[.1.G 3 ' Z.l.z.7.3.t.2.1.U ;.o.+.3.h.7.v.w.h.r.v.o.*.F 3 ",
"0.R._.'.W.W._.OX`.`.9X`.* 4 b v.r.b.R.j.R.p.j.j.r.b.i.i.~ p.t.).j.i.p.Y A O   O 4 4 K h H z 5 & & Z A L i.i.j.v.b.3.L H & & @ 9 ",
"q.P.E.'.T.W.{.`.'.'.sX`.B 4 b X.o.j U { B k B [ & X 7 Z A 5 P * & l 5 l X.+.o.+.b.b.oX0.7.Y r 3 ] m.v.{.4X|.$X|..X.X`.t.D.:.i > ",
"w.R._.E.W.E.{.{.'.$X6X{.5 r b O 8 A B B B M D V Z & O ( [ x.x.r 4 -.N.v.i.`.[.W.u.'.oX`.[.B.( O 5 { b.{.`.I.E.|.I.R.'.).M.] i > ",
"~ q.`.{.`.'._._.{.{._.2XA [ *.U U o.K Y { =.U [ [ & & Y N.H.l.U 5 U N.y.q.p.R.q.q.R.q.W.8XqX( O $ % W W R K.$.$.^ Q T E % X , q ",
"~ h.b.p._._.{..X$X'..X).4.d.f.o.y.3.j.h.n.7.y.f.=.Y wXH.H.B.o.n n v.r.i.3.0.%.t.p.R 0.P.t.D. .V x.1XcX5X%XlXdX%XhXlXxX0X1XA.C.0 ",
"! r.).`.'.`.}.{.|.'.~.R.$ ] I 2.! i.0.p.3.i.i.o.z OX[.j.).r.o.h m p.h.j.b.8.~ ~ ! L W J L U t S v.`.sXpX*X@XT.@XQ.@XQ.'.`.1XN.F ",
"3.p.`.`.E.Q.|..X'.@XpX8.P h.b.w.p.p.p.r.n.y.3.h B.B.r.r.3.i.K h +.2.h.3.h.r.t.3.k.m.i.b.n.X.s S v.oX@XE.^.|.Q.@X$XQ./.Q.$Xr.h.1.",
"+.3.`.`.W._.`.W.oXoXW.0.=.6.7.2X+Xp.j.b.i.l.N A z.h.h.w.h.h.X.b j U x.l.h.7.0.0.7.v.i.n.[.U 3 ( b..X|.|.|.`.{.+X'.$XQ.|.'.{.p.m ",
"X.+.r.j.q.q.).i.u.0.O.L l [ { { { =.=.L K 5 $ l | I I ..U X.F O 4 _ Z X.L L L o.+.J W J L L & l v.j.j.[.,X[.M.B.b.j.j.{.`.b.w.C ",
"U n h L L L L U Y Y K L z z A 8 t 6 & l H H m P P l P { N Z 6 o 2 @ . & B H x x x x h g m L H m h H Z F = 6 & & * $ : * & ; # # ",
"5 6.=.i.3.+.y.l.f.f.1.o.Y o.*.X.&.3 & K r.i.i.i.r.h.i.7.=.G r 3 @ , } x.wX8X9X9XsX0XeX7X7X4X4X0X`.Y V o / [ z.D.d.h.s.h.x.}  .# ",
"7 f.7.i.L O.! +.Y 1.7.v.7.7.l.6.*.F A n.'.&XoX$X{.[.$X[.v.1.G 4 V [ ,XeXiX3X X#XrXfXhXyX3XpXyX*X5Xu.=.A { k.p.oX{.$X{.3X8XeXqX].",
"F ;.y.3.L +.L o.+.7.r.0.r.i.3.x.;.X.L i.oXU.W.8.W.`.R.p.OX3.n A B { ,X).|.~./.L.E.|.|.}.E.Q.~.Q.'.[.1.f ! ).|.yXgXrXxXyXpX3X}.I.",
"F -.l.v.y.3.i.i.7...~ W L o.1.;.&.V f v.p.u.8.u.).8.0.t.7.y.P P N I ,X).9.R.K.K.U.t.t.).{.`.E.E.`.1X[ j ..j._.W.$X|. X.XE.E.K.$.",
"p ( ;.U 3.y.3.i.Y 2.! ! 2.o.U [ ' / B b.[.t.t.t.q.b.t.3.i.v.A S & j D.v.B.p.b.b.j.n.b.B.B.[.[.[.D.F.t 7 | j._.Q.W.).).P.`.E.iX^.",
"> + 3 & N Y A Y L I L Y H 5 N 3 6 6 & h.[.$XR.0.q.b.p.).j.3.[ * # # } | g.x.a.;.x.g.:.,.,.;.g.A.g.>.y , z.r.`.W.'.OX`.[.W.|.%X~.",
"> 0 # ] =.3.H.,X,X1X,XOXM.[ -.t , # & k.[.u.t.P.q.R.0.t.v.Y { ; # # / O & ; = = # < # , 6 & ; O & O . & s.b.W.oXW.`.`.{.oXW.yX|.",
"> a C.S.y.7.v.7.b.v.b.[.v.z.g.} @ ; B m.].p.p.0.).8.R.0.r.! U S [ l.F A U U A l Z N N Z Z N A l B B ] & v.u.T.T.W.W.'.`.'.'.pXY.",
"> @ ; P f +.m ~ ! ~ W W L Y A O , . V v.p.p.t.R.8.t.q.0.r.1.[ * 6.OXn.i.+.o.=.1.=.Y Y U K Y L ! ..{ [ j 2.u.Q.^.Q.`.`._.@X@X%X/.",
", # N H 3.`.`.`.).{.R.t.p.i.U & + + ( m.v.).p.p.t.j.r.p.7.P P [ h.).t.b.r.j.b.i.j.j.b.p.p.p.r.r.w.v.f.[ 2.R.R.U.Q.`.{.`.`.$X`.|.",
"X } z.v.b.`.OX_.t.p.P.R.[.[.f.D , 0 V z.i.r.).p.p.q.q.3.1.U r D +.0.w.0.t.q.t.t.r.q.8.8.9.r.9.j.r.v.d.z ~ w.E.Q.W.'. X}.|.{.}.E.",
"# ] [ h.2.0.0.0.t.0.0.0.0.h.y.F / , 7 7.b.0.u.R.p.0.q.0.r.o.D U ..t.r.h.r.0.8.r.0.p.p.n.).0.p.p.P.b.y.% 1.q._.E.E.}.^.|.|.{.%Xe.",
"V } z.3.i.i.r.3.r.r.r.r.3.v.x._ ` + = Y b.).b.u.t.0.0.r.7.U ] F { 7.f.3.v.v.7.r.0.0.0.q.q.p.[.oX'.b.l.* f.j._.)._.}.^.|.$X|.5X0.",
", ' g.z.3.3.7.v.7.h.h.h.7.z.g.&.a 1 # 6 | 7.i.7.7.m.7.6.;.&./ , -.6.c.6.6.6.f.7.i.3.i.i.3.v.y.y.i.+.G 6 ;.f.[.`._.W.'.}.oX_.{.r.",
"i / V [ Y z B M [ [ [ | _ V r y w w > # S A ] P { U [ [ 8 t e p r V ] Z V S [ F A * K m z o.P L W h A F [ 1.7.b.0.r.u.p.p.h...Y ",
"> , < $ : * - # # 2 o 0 9 > 0 # # < # 6 & 3 $ * : $ = & O 3 ; ; # ; & & , 0 2 3 G H v +.o.O.@.3.! 1.! +.1.+.L L L L W L n $ O V ",
"p <.g.<Xw.w.s.m.d.>.:.@ 9 s V A.k.,XD.N.c.G.A.D.,X<X,XD.A.D.D.A.<XA.<Xh.d.X y &.6.y.p.OXOXOX[.+XB.b.p.).`.).n.[.n.n.n.b.OXz.( t ",
"{ 7.`.`.|.|..X8X8XeX8XM.& 4.h.jXrXrXsX9X0X4X5XsXXXtXhXvXzXyX3XdXeXhXjXjX2X! P P i.0.q.u.u.p.p.j.b.t.r.R.t.0.t.t.b.t.p.p.[.,Xx.S ",
"! i.oX:XlX>XgXyX3XiX}.(.c w.XXgXuXuX:X:X:X@X~.^.uX;XaX#X>X@X X=XtXuXuX=X3XR.* v.n.#.%.%.u.p.t.j.j.p.R.R.P.t.j.8.0.t.q.%.).p.7.Y ",
"+.i.W.W.^.Q.^.}.$XI.I.e.k ].iXuXtXuX X|.|.*X%X>X^.|.|.~.pX~.rX X/./.!.aX5Xw.z z.v.r.t.t.q.P.p.b.q.t.u.u.u.q.p.0.t.#.q.K.K.u.i.L ",
"W n.U.'.T.W.|._.W.|.iX}.k n.6XiXrXiX%XsX3X3X|.|.yX}.sX'.$X|.'.:X^.:X^.`.{.C ] | N.m.p.t.8.j.h.w.r.r.0.0.q.0.0.i.p.p.U.q.u.3.Y l ",
"r.b.oX`.`.Q.W.}.{.R.iX{.5 A 1XOXiX3X|.$X|.|.|.3X$X4XoXW.{.'.yX|.yX'.$X{.1.G , ' Z.l.z.7.w.h.2.1.[ ;.o.+.0.r.7.m.7.w.r.v.o.*.) 6 ",
"8.R.`.'.W.W.W.{.`.`.8X[.5 4 b y.p.p.p.j.R.j.b.b.p.b.j.i.! p.t.b.b.i.i.! A O   O 4 4 K h m z * & & Z A K y.i.j.b.b.r.L H & & @ 9 ",
"t.I.E.'.T.W.'._.'.'.sX`.N 4 b X.X.l U { B k B [ & $ 6 N P * P * & N 5 z X.+.+.+.n.b.OX0.3.Y r 4 ] N.v.{.5X.X.X{.{..X_.t.D.:.i > ",
"0.P._._.W.E.'.`.'.$X5X[.5 8 Z & 8 A B B B M D N Z & O G [ x.x.V 4 [ N.v.i.n.`.R.u.'.oXW.OXB.) O & { b.'.E.K.E.~.I.P.'.).B.] p > ",
"~ t.`.{.'.{.`.{.`..X}.2XS [ Y U U =.K ..{ { P [ [ & & { N.H.l.G 4 U N.y.q.p.R.%.q.U.q.E.8XqX( # $ * W W Q K.$.K.^ Q T E % X , q ",
"~ r.j.).`.`.}..X.X{..Xb.4.g.z.Y 7.3.v.r.M.7.y.z.=.U wXD.D.B.o.n C v.i.r.0.0.0.p.p.W 9.R.j.M. .V x.2XcX5X*XkXdX*XkXxXvX7X1XA.C.0 ",
"L r.`.{.{.'.}.}.|.Q.Q.R.$ [ Y 2.W p.0.b.0.i.i.o.z 1X`.j.n.0.o.h m p.r.b.b.8.~ ~ ! U ! J L U t y v.`.sXpX*X@XY.@XQ.@XQ.'.`.1XN.F ",
"3.j.`.).W.E.{..XoXoXpX9.H x.b.r.i.p.p.r.b.y.6.h B.M.h.q.0.i.K b +.2.r.7.h.j.i.w.v.M.i.i.B.U ) S v.'.@XE.^.|.Q.oX@X^.@XQ.$Xr.i.=.",
"+.r.`.`.W.Q._._.oXoXQ.3.{ a.7.2X+Xb.b.b.v.7.b A z.h.h.w.i.y.X.b j X.x.l.7.3.0.0.7.b.i.b.OXK 6 F b..X|.|.|.`.{.+X'.$XQ.'.}..X).m ",
"X.+.r.t.0.t.b.p.u.0.O.J z { U =.Y =.Y Y K & & b { I I ..P =.Z O 4 _ Z G Y L J +.+.J W L J L & N j.j.j.B.,X[.[.M.b.v.p.{.).b.w.B ",
"G n l L L L L U Y L K L z z A l r 6 4 l m K H P P z P { N Z 6 o 9 @ o O B H h x x h n g m L H m h K Z S = 6 & & : $ : * O ; , # ",
"5 6.1.i.3.+.y.l.l.l.=.+.Y o.U -.&.3 & P r.i.i.i.7.h.z.3.=.G t 2 , , } x.eX8X9XiXsX0XsX7X7X4X4X0X[.L S o / } x.M.d.v.s.h.x.|  .# ",
"7 l.y.y.W +.o.1.+.! r.b.3.y.l.6.-.G n n.oX4X'.$XOX`.$X[.b.1.U 6 V [ ,XeX5X3X X#XrXfXhXyX3XpX:X:X*Xu.=.n ..h.p.@X{.'.$X3X9XeX8XM.",
"D =.y.3.J +.L L +.7.r.3.i.0.6.x.;.G L p.W.W.W.#.Q.`.R.p.OX3.n A B I 2X).|.I./.U.E.|.|.E.}.Q.E.Q.'.[.4.f ! ).|.:XgXrXxXyXsX3X}.P.",
"( -.f.v.y.3.i.h.3...! ! L o.1.*.' V f v.p.u.8.R.R.0.0.t.r.7.P D N { [.).9.R.K.K.I.P.t.).{.`.E._.`.1X[ 7 ..j.`.E.$X'. X.XE.R.K.K.",
"y ) ;.U 7.i.3.7.! 1.! ! 3.Y Y &.} / B v.[.t.q.t.q.b.j.3.v.v.A A & 7 D.v.B.p.).j.i.n.b.B.[.[.[.`.D.F.V 6 { k.`.Q.W.).(.R.}.E.yX^.",
"@ @ 3 & b U H Y I I L ! H 5 V 4 6 6 $ v.[.$XR.9.t.p.R.).i.7.[ 6 # O } } d.x.a.:.C.g.:.,.,.:.g.c.g.>.i 3 z.w.[.W.'.OX[.`.W.oX3XI.",
"> q # U =.7.D.1X,X1XB.1Xn.Y &.r , , & b.`.j.t.t.0.R.8.t.p.Y [ & ; , / O = ; & & = e # # ; & ; & & O . & 7.b.W.oXW.[.`.'.'.E.yX@X",
"q / C.S.z.w.v.7.M.t.b.[.m.f.g.&.X , B m.].R.p.0.R.8.R.r.r.! U B [ l.A A X.U A N V N N Z N b B N B B ] & v.u.T.T.W.W.`.'.'.@X:XY.",
"> @ & P f +.m +.~ ! W E W Y A O 0 + V v.j.b.t.).8.t.r.0.r.4.[ & 7.1Xn.h.1.o.o.=.=.Y Y P K o.L ! ..{ [ j 2.U.Q.^.oXW.'.`.'.@X%X@X",
", = S H 3.`.[.`.`.{.R.t.b.i.Y & + + ( m.v.b.p.t.t.p.q.p.3.P D [ 7.).j.b.r.j.b.p.j.j.b.p.b.p.0.r.r.h.d.[ 2.p.U.U.Q.`.{._.{.$X|.|.",
"X ' l.v.b.W.oX_.t.p.u.R.[.[.f.( , , S z.i.t.).u.p.0.r.0.1.U V D ! 0.8.r.q.q.j.r.r.q.8.8.9.r.q.j.h.b.7.B ~ w.R.Q.Q.'.}.|.{.{.}.R.",
"# } [ h.3.q.0.0.t.0.0.0.0.r.6.D a # : 7.n.8.R.R.R.9.u.0.3.1.F { 1.j.v.w.r.0.8.r.q.p.p.`.).q.p.p.j.).7.% ..t.I.}.Q.I.|.^.|.|.&X9.",
"V } z.3.i.r.0.3.t.r.t.3.3.v.x._ ` + ; U b.`.p.u.0.r.3.i.7.U G D { 7.7.3.v.h.r.r.0.0.0.0.0.p.[.oXW.b.f.5 f.v.'.W.}.}.|.|.|.|.5Xt.",
", ' g.z.3.3.7.v.7.h.h.v.f.z.l.' a q # 7 [ 7.7.7.7.v.7.6.;.-.) o -.6.c.6.d.6.l.f.v.3.i.i.3.v.y.y.u.o._ 6 ;.y.[.[._._.'.}.'.[.{.r.",
"t V V [ U z B M I { I { U Z r p u 1 > 6 S A U U { U U U r r w p r V ] Z Z A U A n * K n z =.P K X.h F S [ ;.r.i.0.u.U.q.U.t.! E "
};
