/* XPM */
static char *b14f931ab9c34d5d8516a27fb64440cf[] = {
/* columns rows colors chars-per-pixel */
"64 64 108 2 ",
"   c #131313",
".  c gray8",
"X  c #151515",
"o  c #161616",
"O  c gray9",
"+  c #181818",
"@  c #191919",
"#  c gray10",
"$  c #1B1B1B",
"%  c gray11",
"&  c #1D1D1D",
"*  c #1E1E1E",
"=  c gray12",
"-  c #202020",
";  c gray13",
":  c #222222",
">  c #232323",
",  c gray14",
"<  c #252525",
"1  c gray15",
"2  c #272727",
"3  c #282828",
"4  c gray16",
"5  c #2A2A2A",
"6  c gray17",
"7  c #2C2C2C",
"8  c #2D2D2D",
"9  c gray18",
"0  c #2F2F2F",
"q  c gray19",
"w  c #313131",
"e  c #323232",
"r  c gray20",
"t  c #343434",
"y  c #353535",
"u  c gray21",
"i  c #373737",
"p  c gray22",
"a  c #393939",
"s  c #3A3A3A",
"d  c gray23",
"f  c #3C3C3C",
"g  c gray24",
"h  c #3E3E3E",
"j  c #3F3F3F",
"k  c gray25",
"l  c #414141",
"z  c gray26",
"x  c #434343",
"c  c #444444",
"v  c gray27",
"b  c #464646",
"n  c gray28",
"m  c #484848",
"M  c gray29",
"N  c #4B4B4B",
"B  c #4C4C4C",
"V  c gray30",
"C  c #4E4E4E",
"Z  c gray31",
"A  c #505050",
"S  c #515151",
"D  c gray32",
"F  c #535353",
"G  c gray33",
"H  c #555555",
"J  c #565656",
"K  c gray34",
"L  c #585858",
"P  c gray35",
"I  c #5A5A5A",
"U  c #5B5B5B",
"Y  c gray36",
"T  c #5D5D5D",
"R  c #5F5F5F",
"E  c #606060",
"W  c gray38",
"Q  c gray39",
"!  c #6A6A6A",
"~  c gray42",
"^  c #6C6C6C",
"/  c #6D6D6D",
"(  c gray43",
")  c #6F6F6F",
"_  c gray44",
"`  c #717171",
"'  c #727272",
"]  c gray45",
"[  c gray46",
"{  c gray47",
"}  c #797979",
"|  c gray48",
" . c #7B7B7B",
".. c #7C7C7C",
"X. c gray49",
"o. c #7E7E7E",
"O. c gray50",
"+. c #808080",
"@. c #818181",
"#. c gray51",
"$. c gray53",
"%. c #888888",
"&. c gray54",
"*. c #8B8B8B",
"=. c #8D8D8D",
"-. c #8E8E8E",
";. c gray56",
":. c #959595",
/* pixels */
"p p e 0 3 , 3 e 3 ; & & 3 3 , 3 0 , 0 e 0 0 e e 0 0 e e p i p 3 & ; 0 , i i z i p p p i i e , i 0 p e 0 ; ; 3 i i p 0 e 0 z 0 M ",
"h 0 ; 0 0 i e 0 e ; & ; ; ; ; 0 i 0 0 3 , 3 0 0 e 0 0 e e & ; e & & , 0 & p e , 3 ; e i e e 3 & & 0 0 3 ; @ , i p i e e e 0 e ; ",
"& & , 0 e i p p 0 ; ; , & & & , i e e 0 , 0 e 0 e i e 3 , e h e & ; e 0 i ; @ 3 & 0 , i h 0 , & ; 3 @ , & ; & e p i , h e @ , @ ",
"; & & & p z h , 0 & & 0 ; ; @ ; 3 0 e 3 3 e i 0 0 3 3 3 0 z z & & & & @ , ; , & & ; 3 3 , ; & ; @ & , & & O & e i c & 0 @ ; e e ",
"@ e p h G F h e e ; & 3 @ & @ , 0 0 0 3 3 i i e 3 0 ; , i z e ; & & & & , & ; @ @ e e 0 e @ & @ ; 0 ; , ; & ; 3 e 0 & e e @ ; ; ",
"i z i h h h 3 3 , @ @ , O @ & 0 e i 0 0 e e 0 3 @ & @ @ 0 h e ; @ ; 3 0 p e ; z G p G Y C z h e ; F h U , @ @ & & ; 0 i p i p 0 ",
"; ; @ ; ; , & & ; & & & @ & & , , 3 3 3 3 3 & & & & 3 h z z 3 @ ; , 3 p 0 C c F U F E _ | G z p h C h h ; O ; & & @ 3 i 0 ; ; ; ",
"& @ ; & ; , p e e 3 ; @ & ; @ & ; ; ; & & ; & & & 0 p h z p @ ; , h h z z z h z F G G c Y G h h e e e i ; & & ; & ; @ @ & ; & 3 ",
", ; & 3 G C *...| U G 0 & @ ; & & & , ; ; @ & & , ; F z z 0 , @ i h h z z e p h F G z p G z z e 0 , 3 & e e ; h & & & 0 ; 0 e F ",
", ; , e _ *...| .._ E z & & & @ & & @ @ ; ; @ ; 0 0 p e 0 , ; @ , p z p e & 3 e z z e ; p e e , ; & , & e i i U , @ , +.| U _ ..",
"& 3 3 ; F +.U G h U U G i & O ; & @ & ; O @ & &   ; , 3 3 & @ @ & e p e 0 ; 3 e h p 0 3 3 3 ; ; & @ ; ; 3 , i G e @ z $.+.U _ ..",
"i , 3 0 h F G G U F U U h ; & @ @ ; @ @ & & ; O 3 & ; & O & & & & 3 0 0 e 3 3 p h 0 ; 0 0 i ; & & & ; , 0 0 h F h O G / G z U G ",
"0 e ; 0 C p h G h h F U F 0 @ @ & & & , ; i h M c O 3 & ; & @ & @ ; 3 0 3 ; ; e p i 3 0 & , @ & & ; ; 3 e e h c 0 & z Y U 0 p i ",
"0 0 e z p p z i p h G G i ; ; & , 3 ; 3 p U p _ i c G ; i p , ; @ & & ; & @ O @ & @ O @ @ , & & & ; @ ; & & & & & @ e G h 0 e & ",
"0 0 e z i i p h z F z p e ; O & i 0 , 0 z G e z G G z U ....h ; & & @ & @ & , ; ; ; ; ; ; ; @ ; 3 3 ; & @ & @ ; & ; e h e i e 0 ",
"0 h p 0 e p h z C U h e e & & e i e 3 & , e z z p & 0 p F C E & @ & & , , p F F G z h z F h h h G F h e 3 e p F e @ 0 z p 0 p p ",
"e 3 e 0 0 p z h F z e , 3 & & h z h e & & 3 e e e , & e G z G ; & & ; 0 z U [ / / F z G F F G U E C c , p U Y ..F & e z i z h p ",
"e 3 p i p c p G G i 0 3 & & 3 h z p e ; ; @ e 0 e , , 3 e z e ; @ , , e ; p | / U U F h p h i z h c p h U E Y / z ; 3 h c h c 0 ",
"; ; , 0 e 0 e z z z , @ @ & & e 0 ; ; ; & 3 , 0 3 3 3 0 z i 0 @ & @ @ & @ G F U p & 3 3 e e p h z h z i e 3 ; p & & & h p e 0 3 ",
", O , & @ & & & @ 3 O ; ; @ ; @ & ; , & @ @ ; O @ @ ; & ; &   & & & @ ; @ & 3 @ @ & O & ; 3 0 p 3 0 c 3 , , ; @ & ; & ; ; @ & & ",
"; ; ; ; @ ; ; & ; , ; 0 0 @ @ & ; & & & & & & ; @ & & @ @ & ; & @ & ; ; & 0 @ & ; 3 ; @ & & & @ , ; , & ; O & ; & @ & 3 e , 3 , ",
"C Y h F G F 0 @ , 3 z c h z i e e p p 0 0 G z p e e p e i e , & & 0 h e U F i & G p ; ; & & & & & 0 & @ @ & & 0 p U Y [ / G U z ",
"G Y F Y ..;.h ; , c G F F F 3 i z z p e z M F Y Y / C Y F h 0 & @ 0 z h i i z p G F G z G @ ; , F +...G ; , e h p z F _ ..z F G ",
"G G G F ..:.G & e h h G h i i p i e 3 & p _ [ ;.;..._ U .._ h ; & 0 h e , ; 0 i h U h ! h & & 0 e z z | Y 0 h ; & e p z Y F c e ",
"z F z i / M p ; e e i p p e & e e , , & e U | ....Y G / ;...p 0 & 3 h 3 , & e p i e z U U h & 3 e G F _ G 3 3 , 3 3 i h G G F G ",
"h G h F [ z 3 @ @ 3 e 0 , 0 0 3 e 0 3 ; z F F G & e i ..;.G G 3 @ ; 3 & ; 3 e e e 0 e z F i ; & ; h , F e & ; e @ e 0 c p i & 0 ",
"z G F F / z & ; ; & ; ; , 3 h i i 3 e p z z i 0 e , e G U C h , & & ; ; ; e 3 ; 0 0 , p p e & & 3 e 0 p 0 ; @ 3 3 0 ; & e , i 0 ",
"h C G F / h ; ; & & @ 3 @ ; i F p , ; i & ; & ; @ , 3 e F ;.F e @ & ; & ; 0 , ; 0 3 e e h , & ; 3 i e e e @ 3 0 e i 0 0 e 3 3 ; ",
"C U z M E 0 ; @ & & 3 , i p z F z p 0 p p i & 3 0 e ; 0 G / h e ; @ & @ @ & ; ; , & & & O ; O , e z h h ; & O ; ; i 0 i i 0 ; z ",
"z F z z i @ @ ; & , p 0 i p h F p e ; @ e 3 & e & 0 e p F G z e ; @ & & & & & ; & @ , @ ; ; @ & 0 G z F 0 ; ; @ 3 3 h z p p h h ",
"0 0 3 0 0 0 @ @ @ ; O 0 & i , p 0 3 0 , e 0 0 i i i p F G z p , @ O & ; , e e i i i 0 e ; & , 0 z F C c 0 @ @ & O 0 , & 0 i 0 e ",
"e 0 e i i ; , 3 & ; ; 0 , 0 e e 3 0 e 0 0 e 0 0 p e i p z z 3 0 & & ; , ; p h C h F G _ G & , e i z p i 0 & , , 0 i 3 e 0 ; 0 i ",
"p p e 0 0 , , e 3 & & & 3 0 , , 0 3 0 e 0 0 e 0 0 0 e e i i h , & , 0 , i i z i p p p i i e , i 0 p e 0 ; ; 3 p i p 0 e 0 z 0 M ",
"h 0 ; 0 e e e e e , & ; & ; ; 0 i 0 0 3 ; 3 e 0 e 0 0 e i @ ; e & & , 0 & p e , 3 ; e i e e 3 & & 0 0 3 ; @ , i p i e e e 0 e ; ",
"& @ , e e e p p e ; ; , & & & , e e e 0 , 0 e 0 e e i 3 , e h e & & e 0 i ; @ 3 & 0 , i h 0 , & ; 3 @ , & ; & e p i , h 0 @ , @ ",
"; & & & p z h , e & & 0 ; & @ ; 3 0 e 3 3 e i 0 0 3 3 3 0 z z @ & & ; @ , ; , & & ; 3 3 , ; & ; @ & , & & O & e i c & 0 @ ; e e ",
"@ e p z F F h e e ; @ 3 @ & @ , 0 0 0 3 0 e i e 0 3 ; , e z e ; @ & & @ , & ; @ @ i 0 0 e @ & O ; 0 , ; ; & ; 3 0 0 ; e i & ; ; ",
"p c i h h h 3 3 , @ @ ; @ @ & 0 e e e 0 e e 0 3 @ & @ & 0 z e ; @ ; 0 0 p e ; z G p G U C z h e ; F h U , & @ & & ; 0 i i e p 0 ",
"; ; @ ; ; , @ & ; & & ; & & & , , 3 , 3 3 3 ; @ & & 3 h z z 3 @ ; 3 3 p 0 C c F U F Y _ | U c p h C p h ; O & & & & , p 3 ; ; ; ",
"& O ; @ , , p e e 3 ; @ & & @ & , ; ; & ; & & & @ e p h z p & ; , p h z z z h z G G G z U F h h e e i i & ; & ; @ ; & @ ; ; & 3 ",
", ; ; 3 G C *...| U G 0 & & ; & & & ; ; ; @ & & , ; F h z 0 ; @ i h z z z 0 p h F G z p G z z e 0 , 3 & e e ; h & & & 0 ; 0 e F ",
", ; , e _ *...| .._ E z & & & @ & & & @ ; ; @ ; 0 0 i e 0 , ; & , p h p e & 3 e z z 0 ; p e e , ; & , & e i i U , @ , +.| U _ ..",
"& , 0 & F +.U F h Y Y G e & O ; & @ & & @ @ & & O ; 3 3 3 & @ @ & 0 p i 0 ; , e h p e 3 3 3 ; ; & @ ; ; 3 , i G e @ z $.+.Y _ ..",
"i , 3 0 z F G G U F Y Y h ; & @ @ ; @ & & @ ; @ 3 & ; & O & @ & & 3 0 0 e 0 3 p h 0 ; 0 0 i ; & & & ; , 0 0 h F h O G / G z U G ",
"0 e ; 0 M p z G h h F G F 0 & @ & & @ , ; i h c c O 3 & ; & & & @ ; 3 3 3 , ; e p i 3 0 & , O & & ; ; 3 e e h c 0 & z Y U 0 p i ",
"0 0 e z p p z p p h G G i , ; & , 0 ; 3 p U h _ i c G , i p , ; @ & & ; ; @ O @ & @ O @ @ , & & & ; @ ; & & & & & @ e G h 0 e & ",
"0 0 e z i i p h z F c p e ; O & p 0 , e h G i z G G z U ....h ; & & O & @ & , ; ; ; ; ; ; & & ; 3 3 ; & @ & @ ; & ; e h e i e 0 ",
"0 p p 0 e p h z C U h e e @ & 0 i e 3 & , e z h p & 3 p F C E & @ ; & , , i F F F z h z F z p z G F h e 3 e p F e @ 0 z p 0 p p ",
"e 0 e 0 e i z p G z i ; 3 @ & h z h e & & 3 e e e ; & e G h U & & & ; 0 z U [ / / F z G F F G U E C c , h U Y ..F & e z i z h p ",
"0 3 i i p c p U G i e 3 & & 3 h h h e ; ; @ e e 0 , , , e z e & O , 3 e ; p | / U U F h p h p z h c p h G E Y / z ; 0 p c h z 0 ",
"; ; , 0 e 0 0 z z z , @ @ & & e 0 ; ; ; @ 0 , 3 3 3 3 e c i 0 & & @ @ & @ G F U p & 3 3 e e i h z z z i i 3 , p @ & & h p e 0 3 ",
", O ; & @ @ & & @ 3 O ; ; @ ; @ ; ; , @ @ @ ; @ & @ ; & ; &   & & & @ & & & 3 @ @ & O & ; 3 0 p 0 3 c 3 , , & @ & ; ; ; ; @ & & ",
"; ; ; ; @ ; ; & & 3 ; 3 3 & @ & ; @ & ; ; & & ; @ ; & @ @ & ; & @ & ; ; & 0 @ & ; 3 ; @ & & & @ ; ; ; & ; O ; & ; @ & 3 e , 3 , ",
"C E h F G F 0 @ , 3 z c h c i e e p p 0 3 G z p e e i e i e , & & 0 h e U F e ; G p ; ; & & & & @ 0 & @ @ & & 0 p U Y [ / G G z ",
"G Y G U ..;.z ; , c G G F F 0 e h z p e c M G Y Y / C Y F h 0 & @ 0 z h i i z p G F G z G @ ; , F +.| G , , e z p h F _ ..z G G ",
"G G G F ..:.F & e z h G h i i p i i 3 & p _ [ ;.*..._ U | _ z ; & 0 h 0 , ; 0 i h U h ! h & & 0 i z z | Y 0 p ; & e p z Y F c i ",
"z F z i / M p & e 0 i p p 0 & e 0 , , & e Y | | ..Y G / ;...p 0 ; 3 h 3 ; ; e i i e z U U h & 3 e G F _ G 3 3 , 3 3 i h G F F G ",
"h G h F [ z 3 @ @ 3 e 0 3 0 0 3 e e 3 ; c G G G & 0 i ..;.G G 3 @ ; 3 ; ; 3 e 0 e 0 e z F i ; & ; h , F e & ; e @ i 0 c p i & 0 ",
"z F F G _ z & ; ; & , ; , 3 h p e 3 i p z h i e e , e F Y F p 3 @ ; ; & ; e 3 ; 0 0 , p p e @ & 3 e 0 p 0 ; @ 3 3 0 , & e , e 0 ",
"h C G F ! z ; ; & @ & , @ ; i F h ; ; i & ; & ; @ , 0 0 G *.F 0 & @ & ; ; 0 , ; 0 3 e e h , ; ; 3 i e e e @ 3 0 e e 0 0 i 3 3 ; ",
"C G z C E 0 ; @ & & 3 , e p z G z p 0 p p i & , 0 e & 0 F / z e ; @ & @ @ & ; ; , & & & O ; O , e z h h ; & O ; ; i 0 i i 0 ; z ",
"z F z z i @ @ ; & , p 0 p p h G p e & @ e 3 ; e ; 0 e p F G z 0 ; @ & & & & & ; & @ , @ ; ; @ & 0 G z F 0 ; ; @ 3 3 h z p p h h ",
"0 0 0 0 0 0 @ @ & ; O e & i , p 0 , 0 , e 0 0 i i i p F G z p , @ O & ; , e e p i i 0 e ; & , 0 z F C c 0 @ @ & O 0 , & e i 3 i ",
"e 0 0 i i , , 3 & & ; 0 , 0 e 0 0 3 e 0 0 e 0 e p e i p h z 0 0 & & ; , ; p h C h F G _ G & , e i z p i 0 & , , 0 i 3 i 3 ; 0 i "
};
