/* XPM */
static char *_bdbd51a29954bc3d47d18bed9edfb06[] = {
/* columns rows colors chars-per-pixel */
"64 64 58 1 ",
"  c gray18",
". c #353535",
"X c #3C3C3C",
"o c #444444",
"O c #4C4C4C",
"+ c #535353",
"@ c #595957",
"# c #5B5B5B",
"$ c #636363",
"% c #676969",
"& c #6C6C6C",
"* c #706F6F",
"= c #6F6F70",
"- c #6F7171",
"; c #747474",
": c #787777",
"> c #7B7B7B",
", c #7F807F",
"< c #7F7F80",
"1 c #807F80",
"2 c #848484",
"3 c #8B8B8B",
"4 c #908F8F",
"5 c #8F908F",
"6 c #8E8E90",
"7 c #949494",
"8 c #979897",
"9 c #989897",
"0 c #9B9B9B",
"q c #9FA09F",
"w c #A0A09E",
"e c #9F9FA1",
"r c #A4A4A4",
"t c #A7A8A7",
"y c #A8A8A7",
"u c #ACACAC",
"i c #B0B0AF",
"p c #AFAFB0",
"a c #B0AFB0",
"s c #B3B3B3",
"d c #B8B7B7",
"f c #B7B7B8",
"g c #BBBBBB",
"h c #BFC0BF",
"j c #BFBFC0",
"k c #C3C3C3",
"l c #C7C8C7",
"z c #CCCCCC",
"x c #CFD0D0",
"c c #D4D4D4",
"v c #D8D8D7",
"b c #DBDBDB",
"n c #DFE0E0",
"m c #E5E5E5",
"M c #E8E7E7",
"N c #EBEBEB",
"B c #F3F3F3",
"V c #FAFAFA",
/* pixels */
"pcifigffu05rr0:$#3X%iy%$$%*#xv:li0@7ejg=@OO:X7t$$2327r$ur:2:%oo$",
"u:-3408083-icbvg343l9##::332cBlfs2O3pcczgp1;%8:$166>30-*63#.oO3k",
"26ryr0663,ofVVvkjlgj,$*22443ffr7a>@:224w0r09ts36043;>8<O,69>$;ss",
"07yy48>83>oiB06,2r1ur=13323,au4O93&8>3603:<0cu89832-$:%+yfs3+0Ny",
"336r7>:87<ogv62:;3>2fj>&:237uu3O6r3>->4we>&sv88732;+@o@7zl0;2MM0",
"2>&:534pt3Ovv>:=%2044z0#%%4udd9$,rf0>>208:$np0432:#+o:fcf>19+mby",
":==:ppryt3+vc3>:&3yu%ua:2rdsy0y2$8jfu72e326v8322<#oo4mNe34rrXvxy",
"8$$:680pt<+cl32:$>we3=s97uur3:73+kmcclif83i06>2:$ Orvz66e0r4Ofxx",
"xdr-+#266:@cl3>&%:706@telzr32$>2+bp869rj4-e*$+OooO:k03344303@svv",
"kpkzh7:+##$ll3:=;27r8O09uvg<=%:1+lr070er:-3,:>;:%:eke:23:>37Oukz",
"-*4gkzzf4=2fs2367ryr1Or9rk00>@;;+k073703+-20kxgr>3jbcg422337Xske",
"#$%;>3gur48ir:30eyue%#a93433i7#@%z83234:X$4xbz0>-2ykzxxg21>$#gf$",
"+#%-::72:>8r:;600yue=>lp427;iau0wx33223.@:ujr0224rxjw8ixxf=O3r9+",
"&$$$==632$qspp334803:3cz464292tgxl3*%*.+3ayr7430rrljgr2gjf>27u3;",
"::*$=>0q>@yhvhp0280225hl4446rw6>sju,Oo#4swpg433rr0dkf6$wfuy93f;=",
",23367003=gmBny42=2:23ulrr034808*44:>;4u70agf44r090g9&;4k9470f:=",
":38034307-zmgjvs7>-$340z8962:3002@*>17fze28fja89997r2@30z7:wlg:$",
">23721247=kvytyrgjvvvs0z983:2809-o3rajbbj38gkgf73481=;pfr9r:kjs;",
"30082;90r>gf37e0r0gflr6u02::3up0;$klg1wkku0eipggy32&O20k22f730y0",
"22382<rt0:74603:13e937326>:,0pf0.3cVr676jzs78rsgge-@=0yl>2yy32zv",
"y31680re7=:2yr:-:28:#26=074eprr$#gcg09er4zz536yy42$370a067epr:rn",
"x>$@#=#@#@;sk0;$$:2%o73>30rr863Xrbc4989s77li2167:@8gfuw9448gls2y",
"bg83iy6:2ixbb2%##:6:Of::-3u+oXO2mb433>4y9=wia3;;+2sff600870ige4=",
"BMkkxlzzbNbxk=O@%5r2Ot$$@+O+8igcmr631;>932*7fy##6pgf27sr88034=+&",
"m836ygklcf40kr:6rpy2+0r0dkzvbgsgk232>&-2222;ri730gc722sp008@@=rB",
"7033wikgy03>rceuki3;+7bmMcf3><3iu333:&>03316&gr04g7876ad43$+ubVl",
"32;6ygi9737r<bgryr#o$fMf721::>Ort2:2>,8y8433#kfsrcy3,3re<>#&zmf6",
"%::27266623i99g:>+%yaxy909042:o>00$->28w82;:%kl3:yhk9=%2:<-%lmy:",
"=#=2:-22223fr%rifyMlpcs3333377$$9y%%>13682:+wvu>0i00fae0>:;:kbkt",
"ir22$$=>336u4@0lNBj2%gv9332<362+ji>%::,341#:zj=2r00p31rjzu7>0tsi",
"fy76#o@:32382oyvl721%wNz222>233Ozk3O@#*22:orc3%9r008;#rllf7>389r",
"r0:4>$%:;;<3o=g0:3493$0l9>3>2:2$dke3=&#OoO=pr@*33:>Oo1s7=##=py<8",
"p0@8egg=#OO:X7t#%2329r$yr;1:%oo$icasafffp06rr0:$#2X=iy%$#*=#cv:l",
"f2O3pcvzja>;%8:$133<20;;63#.o+2lu:;34e8093-icbvg343l0##>:332cNlf",
"p:@:224w0te9yf36043;>91O1691$=fs34ryrw343,osVVclhlgj>$*22443dfr4",
"86&8>2603:>0xu90931;$:%+yfs3+0Ny04yy47>83>ofV03,2r>pr*23323>pp6+",
"6r32;>6e0>&sv99733=++O+7zl0;2MN0335r4<:881ogv62:*4>2dj>%>237yu3+",
",rf9>:207>$na9431:$Oo;scf:19Omby2>=:436py2Ovv>:*$3044l0#%%6ufg8$",
"$9gfu72e326v83321#oo7MNe37rrXvcy;&-:ppruy3+bv2,:%3yu%ui:2rfsr0r2",
"+kmcczis73s03>1;$ Orvz4600r7Ofxz8$$:680ur,+cl6,;$,0r3*i05upr4:82",
"+bu969rj6-w-$@OOOO:k03367306@ivvxfe=@#344>#cl3>=%:703@rwlxr32$>3",
"+zr089wr:-21:>-;%;ekr:23:>38Oylljpkzg8=O##$ll2>-;27r9Oe8uvg>-%*1",
"+k076706+=20kcfr>2jvvg322337oak0**4gkzzf4=1fi2267ery1Or9rk0w,@*;",
"$x83226:X$7xvz0>;1ukzxxg2>>$@gf%#$%:>3gur48sr>60euue&#i93442i7##",
"wx32232.@:ujr0224rcg00pxzg=O3y0O+#%*>:71:>8r::600yye=>li424:iauw",
"xl3-*-.+3iur7630rrlggr2gjd:29u3;=%$$&*33<$eiiu367903:3xz564292yf",
"sjy,+o#4sqig433rr0fkf5$wfur03d--:;-$=,0r<@tkvgp0290324jz7753re3>",
"*46:>;3u70igf44r000g0%:4k8470d:-,23344003=gmBby71=2;32ulwr0347e9",
"2@->>8szr39djs89887e2@30z7:elg:$:38066307=zngjcs71=$340l905<:300",
"*O2rijbbg39fjfg4368<&;ugr9r:khf->2642<267;kvyturjgvvvf0x973:2808",
"-$lzg,ekkueesiggu32%+20j1<f430r030082:0er:gf37e0r0jslr6y03::6yp0",
".3cVr384gzs79rsfg0;@&9ul13yy32zv22382>er0:843e3;13e928323>:10pf0",
"#gcf00we4zl434yu62$380i064epr:rnu6,680rr8=:2yt:;:27:#26=084eprr$",
"wnx7979s77zp1147:@8gfpq0478glf2rx>$@#&#@@@;sk0;$$:2&o73>30rr946X",
"Mb433,4y0=wup3;:@2idf600870igq4=bk83pr6:1pzbb2%#$:3:Of::=2u+oXO2",
"mr43,*>932=7fy##4igf25ir08034=+=BMkgxzzzbNnxk=O@%3r2+r$$#+O+0igz",
"j333>%-2222-ri730gc722fp007@@=rBn834ygjlxf40kr:4ruy2+0r0fkzvbhig",
"u233>%>04226&gr04g8846ii43$+pbVk40330skky83>rceuji3;+7bmMcf3>,3s",
"r2*2,18y9423#kfsrct223rr<>$&zmg632:5rfp8937r>bgerr#O$dMf72,::>Or",
"0w%*:37q83::%kl3:ykk0=$2;1-$lmu:=-:27333623a08g:>+%yizy00904<:o>",
"9y%%:13643:+evy>0p00gir0>:;:jbky%$=2:-23223fr&rsgyMlpci3363374%$",
"ji:%::164<#:zj=2r00p2<rjzp4>0tsiir22$$=>334u7+0zNBj2&gv8332,36,+",
"zj3++#=22:oyx3%9r007:#rklg7:388rfr43@o@:32373oyvk722%0Nz222>233O",
"dkr3=&#+oO&ar@;33:>Oo2p7=#$=iy>8y0:8>$=*;;13o%g9:3483$qk0:2,3:2$"
};
